Encode_Exp_Lt.ufo
<glyph name="ampersand" format="1">
  <advance width="695"/>
  <unicode hex="0026"/>
  <outline>
    <contour>
      <point x="695" y="19" type="line"/>
      <point x="328" y="262" type="line" smooth="yes"/>
      <point x="213" y="338"/>
      <point x="189" y="376"/>
      <point x="189" y="436" type="curve" smooth="yes"/>
      <point x="189" y="521"/>
      <point x="243" y="570"/>
      <point x="377" y="570" type="curve" smooth="yes"/>
      <point x="424" y="570"/>
      <point x="465" y="564"/>
      <point x="499" y="555" type="curve"/>
      <point x="499" y="588" type="line"/>
      <point x="467" y="597"/>
      <point x="426" y="602"/>
      <point x="377" y="602" type="curve" smooth="yes"/>
      <point x="225" y="602"/>
      <point x="153" y="541"/>
      <point x="153" y="437" type="curve" smooth="yes"/>
      <point x="153" y="364"/>
      <point x="190" y="315"/>
      <point x="311" y="235" type="curve" smooth="yes"/>
      <point x="677" y="-8" type="line"/>
    </contour>
    <contour>
      <point x="583" y="195" type="curve" smooth="yes"/>
      <point x="583" y="234"/>
      <point x="577" y="272"/>
      <point x="562" y="308" type="curve"/>
      <point x="529" y="308" type="line"/>
      <point x="543" y="272"/>
      <point x="552" y="232"/>
      <point x="552" y="196" type="curve" smooth="yes"/>
      <point x="552" y="82"/>
      <point x="473" y="24"/>
      <point x="326" y="24" type="curve" smooth="yes"/>
      <point x="166" y="24"/>
      <point x="109" y="84"/>
      <point x="109" y="164" type="curve" smooth="yes"/>
      <point x="109" y="228"/>
      <point x="144" y="275"/>
      <point x="224" y="305" type="curve"/>
      <point x="203" y="330" type="line"/>
      <point x="118" y="297"/>
      <point x="73" y="238"/>
      <point x="73" y="161" type="curve" smooth="yes"/>
      <point x="73" y="64"/>
      <point x="148" y="-7"/>
      <point x="324" y="-7" type="curve" smooth="yes"/>
      <point x="493" y="-7"/>
      <point x="583" y="66"/>
    </contour>
  </outline>
</glyph>
<glyph name="A" format="1">
  <advance width="615"/>
  <unicode hex="0041"/>
  <outline>
    <contour>
      <point x="54" y="0" type="line"/>
      <point x="312" y="576" type="line"/>
      <point x="302" y="576" type="line"/>
      <point x="560" y="0" type="line"/>
      <point x="597" y="0" type="line"/>
      <point x="329" y="595" type="line"/>
      <point x="285" y="595" type="line"/>
      <point x="18" y="0" type="line"/>
    </contour>
    <contour>
      <point x="477" y="208" type="line"/>
      <point x="468" y="241" type="line"/>
      <point x="147" y="241" type="line"/>
      <point x="137" y="208" type="line"/>
    </contour>
    <contour>
      <point x="308" y="611" type="move" name="top"/>
    </contour>
    <contour>
      <point x="597" y="0" type="move" name="ogonek"/>
    </contour>
    <contour>
      <point x="308" y="0" type="move" name="bottom"/>
    </contour>
  </outline>
</glyph>
<glyph name="B" format="1">
  <advance width="570"/>
  <unicode hex="0042"/>
  <outline>
    <contour>
      <point x="534" y="161" type="curve" smooth="yes"/>
      <point x="534" y="241"/>
      <point x="488" y="299"/>
      <point x="374" y="310" type="curve"/>
      <point x="371" y="303" type="line"/>
      <point x="474" y="316"/>
      <point x="515" y="370"/>
      <point x="515" y="444" type="curve" smooth="yes"/>
      <point x="515" y="548"/>
      <point x="443" y="601"/>
      <point x="271" y="601" type="curve" smooth="yes"/>
      <point x="198" y="601"/>
      <point x="149" y="596"/>
      <point x="89" y="584" type="curve"/>
      <point x="89" y="6" type="line"/>
      <point x="154" y="-2"/>
      <point x="198" y="-4"/>
      <point x="255" y="-4" type="curve" smooth="yes"/>
      <point x="458" y="-4"/>
      <point x="534" y="54"/>
    </contour>
    <contour>
      <point x="123" y="36" type="curve"/>
      <point x="123" y="558" type="line"/>
      <point x="163" y="565"/>
      <point x="206" y="569"/>
      <point x="272" y="569" type="curve" smooth="yes"/>
      <point x="421" y="569"/>
      <point x="482" y="533"/>
      <point x="482" y="443" type="curve" smooth="yes"/>
      <point x="482" y="358"/>
      <point x="420" y="322"/>
      <point x="297" y="322" type="curve" smooth="yes"/>
      <point x="115" y="322" type="line"/>
      <point x="115" y="290" type="line"/>
      <point x="304" y="290" type="line" smooth="yes"/>
      <point x="436" y="290"/>
      <point x="500" y="252"/>
      <point x="500" y="163" type="curve" smooth="yes"/>
      <point x="500" y="74"/>
      <point x="444" y="27"/>
      <point x="257" y="27" type="curve" smooth="yes"/>
      <point x="203" y="27"/>
      <point x="164" y="30"/>
    </contour>
    <contour>
      <point x="291" y="595" type="move" name="top"/>
    </contour>
    <contour>
      <point x="291" y="0" type="move" name="bottom"/>
    </contour>
  </outline>
</glyph>
<glyph name="C" format="1">
  <advance width="541"/>
  <unicode hex="0043"/>
  <outline>
    <contour>
      <point x="520" y="19" type="curve"/>
      <point x="520" y="52" type="line"/>
      <point x="457" y="32"/>
      <point x="410" y="26"/>
      <point x="353" y="26" type="curve" smooth="yes"/>
      <point x="197" y="26"/>
      <point x="92" y="93"/>
      <point x="92" y="298" type="curve" smooth="yes"/>
      <point x="92" y="493"/>
      <point x="192" y="569"/>
      <point x="359" y="569" type="curve" smooth="yes"/>
      <point x="415" y="569"/>
      <point x="469" y="562"/>
      <point x="520" y="548" type="curve"/>
      <point x="520" y="581" type="line"/>
      <point x="468" y="595"/>
      <point x="420" y="602"/>
      <point x="360" y="602" type="curve" smooth="yes"/>
      <point x="175" y="602"/>
      <point x="56" y="510"/>
      <point x="56" y="297" type="curve" smooth="yes"/>
      <point x="56" y="72"/>
      <point x="181" y="-7"/>
      <point x="352" y="-7" type="curve" smooth="yes"/>
      <point x="414" y="-7"/>
      <point x="467" y="1"/>
    </contour>
    <contour>
      <point x="323" y="611" type="move" name="top"/>
    </contour>
    <contour>
      <point x="332" y="0" type="move" name="bottom"/>
    </contour>
  </outline>
</glyph>
<glyph name="E" format="1">
  <advance width="546"/>
  <unicode hex="0045"/>
  <outline>
    <contour>
      <point x="503" y="0" type="line"/>
      <point x="503" y="32" type="line"/>
      <point x="123" y="32" type="line"/>
      <point x="123" y="563" type="line"/>
      <point x="498" y="563" type="line"/>
      <point x="498" y="595" type="line"/>
      <point x="89" y="595" type="line"/>
      <point x="89" y="0" type="line"/>
    </contour>
    <contour>
      <point x="456" y="290" type="line"/>
      <point x="456" y="322" type="line"/>
      <point x="108" y="322" type="line"/>
      <point x="108" y="290" type="line"/>
    </contour>
    <contour>
      <point x="468" y="0" type="move" name="ogonek"/>
    </contour>
    <contour>
      <point x="302" y="611" type="move" name="top"/>
    </contour>
    <contour>
      <point x="17" y="595" type="move" name="topleft"/>
    </contour>
    <contour>
      <point x="304" y="0" type="move" name="bottom"/>
    </contour>
  </outline>
</glyph>
<glyph name="F" format="1">
  <advance width="527"/>
  <unicode hex="0046"/>
  <outline>
    <contour>
      <point x="123" y="0" type="line"/>
      <point x="123" y="562" type="line"/>
      <point x="494" y="562" type="line"/>
      <point x="494" y="595" type="line"/>
      <point x="89" y="595" type="line"/>
      <point x="89" y="0" type="line"/>
    </contour>
    <contour>
      <point x="451" y="289" type="line"/>
      <point x="451" y="321" type="line"/>
      <point x="117" y="321" type="line"/>
      <point x="117" y="289" type="line"/>
    </contour>
  </outline>
</glyph>
<glyph name="G" format="1">
  <advance width="636"/>
  <unicode hex="0047"/>
  <outline>
    <contour>
      <point x="553" y="8" type="curve"/>
      <point x="553" y="289" type="line"/>
      <point x="519" y="289" type="line"/>
      <point x="519" y="22" type="line"/>
      <point x="532" y="40" type="line"/>
      <point x="493" y="32"/>
      <point x="451" y="28"/>
      <point x="393" y="28" type="curve" smooth="yes"/>
      <point x="195" y="28"/>
      <point x="93" y="116"/>
      <point x="92" y="298" type="curve" smooth="yes"/>
      <point x="91" y="493"/>
      <point x="212" y="569"/>
      <point x="374" y="569" type="curve" smooth="yes"/>
      <point x="420" y="569"/>
      <point x="469" y="565"/>
      <point x="536" y="548" type="curve"/>
      <point x="536" y="581" type="line"/>
      <point x="477" y="595"/>
      <point x="428" y="602"/>
      <point x="372" y="602" type="curve" smooth="yes"/>
      <point x="193" y="602"/>
      <point x="55" y="511"/>
      <point x="56" y="297" type="curve" smooth="yes"/>
      <point x="57" y="96"/>
      <point x="173" y="-4"/>
      <point x="393" y="-4" type="curve" smooth="yes"/>
      <point x="447" y="-4"/>
      <point x="489" y="-2"/>
    </contour>
    <contour>
      <point x="341" y="611" type="move" name="top"/>
    </contour>
    <contour>
      <point x="341" y="0" type="move" name="bottom"/>
    </contour>
  </outline>
</glyph>
<glyph name="H" format="1">
  <advance width="671"/>
  <unicode hex="0048"/>
  <outline>
    <contour>
      <point x="123" y="0" type="line"/>
      <point x="123" y="289" type="line"/>
      <point x="548" y="289" type="line"/>
      <point x="548" y="0" type="line"/>
      <point x="582" y="0" type="line"/>
      <point x="582" y="595" type="line"/>
      <point x="548" y="595" type="line"/>
      <point x="548" y="322" type="line"/>
      <point x="123" y="322" type="line"/>
      <point x="123" y="595" type="line"/>
      <point x="89" y="595" type="line"/>
      <point x="89" y="0" type="line"/>
    </contour>
    <contour>
      <point x="335" y="0" type="move" name="bottom"/>
    </contour>
    <contour>
      <point x="335" y="611" type="move" name="top"/>
    </contour>
    <contour>
      <point x="17" y="595" type="move" name="topleft"/>
    </contour>
    <contour>
      <point x="335" y="460" type="move" name="center"/>
    </contour>
  </outline>
</glyph>
<glyph name="I" format="1">
  <advance width="211"/>
  <unicode hex="0049"/>
  <outline>
    <contour>
      <point x="123" y="0" type="line"/>
      <point x="123" y="595" type="line"/>
      <point x="89" y="595" type="line"/>
      <point x="89" y="0" type="line"/>
    </contour>
    <contour>
      <point x="106" y="611" type="move" name="top"/>
    </contour>
    <contour>
      <point x="123" y="0" type="move" name="ogonek"/>
    </contour>
    <contour>
      <point x="106" y="0" type="move" name="bottom"/>
    </contour>
  </outline>
</glyph>
<glyph name="J" format="1">
  <advance width="211"/>
  <unicode hex="004A"/>
  <outline>
    <contour>
      <point x="123" y="102" type="curve"/>
      <point x="123" y="595" type="line"/>
      <point x="89" y="595" type="line"/>
      <point x="89" y="115" type="line" smooth="yes"/>
      <point x="89" y="23"/>
      <point x="61" y="-50"/>
      <point x="-1" y="-119" type="curve"/>
      <point x="23" y="-137" type="line"/>
      <point x="92" y="-59"/>
      <point x="117" y="10"/>
    </contour>
    <contour>
      <point x="106" y="611" type="move" name="top"/>
    </contour>
    <contour>
      <point x="149" y="0" type="move" name="bottom"/>
    </contour>
  </outline>
</glyph>
<glyph name="K" format="1">
  <advance width="564"/>
  <unicode hex="004B"/>
  <outline>
    <contour>
      <point x="560" y="0" type="line"/>
      <point x="280" y="312" type="line"/>
      <point x="280" y="301" type="line"/>
      <point x="542" y="595" type="line"/>
      <point x="500" y="595" type="line"/>
      <point x="242" y="305" type="line"/>
      <point x="517" y="0" type="line"/>
    </contour>
    <contour>
      <point x="123" y="0" type="line"/>
      <point x="123" y="595" type="line"/>
      <point x="89" y="595" type="line"/>
      <point x="89" y="0" type="line"/>
    </contour>
    <contour>
      <point x="264" y="289" type="line"/>
      <point x="264" y="322" type="line"/>
      <point x="115" y="322" type="line"/>
      <point x="115" y="289" type="line"/>
    </contour>
    <contour>
      <point x="288" y="595" type="move" name="top"/>
    </contour>
    <contour>
      <point x="288" y="0" type="move" name="bottom"/>
    </contour>
  </outline>
</glyph>
<glyph name="L" format="1">
  <advance width="494"/>
  <unicode hex="004C"/>
  <outline>
    <contour>
      <point x="488" y="0" type="line"/>
      <point x="488" y="33" type="line"/>
      <point x="123" y="33" type="line"/>
      <point x="123" y="595" type="line"/>
      <point x="89" y="595" type="line"/>
      <point x="89" y="0" type="line"/>
    </contour>
    <contour>
      <point x="106" y="611" type="move" name="top"/>
    </contour>
    <contour>
      <point x="348" y="314" type="move" name="periodcentered"/>
    </contour>
    <contour>
      <point x="106" y="313" type="move" name="slash"/>
    </contour>
    <contour>
      <point x="321" y="595" type="move" name="caronalt"/>
    </contour>
    <contour>
      <point x="289" y="0" type="move" name="bottom"/>
    </contour>
  </outline>
</glyph>
<glyph name="M" format="1">
  <advance width="796"/>
  <unicode hex="004D"/>
  <outline>
    <contour>
      <point x="123" y="0" type="line"/>
      <point x="123" y="566" type="line"/>
      <point x="105" y="566" type="line"/>
      <point x="380" y="81" type="line"/>
      <point x="416" y="81" type="line"/>
      <point x="690" y="566" type="line"/>
      <point x="673" y="566" type="line"/>
      <point x="673" y="0" type="line"/>
      <point x="706" y="0" type="line"/>
      <point x="706" y="595" type="line"/>
      <point x="668" y="595" type="line"/>
      <point x="392" y="101" type="line"/>
      <point x="406" y="101" type="line"/>
      <point x="128" y="595" type="line"/>
      <point x="90" y="595" type="line"/>
      <point x="90" y="0" type="line"/>
    </contour>
    <contour>
      <point x="399" y="595" type="move" name="top"/>
    </contour>
    <contour>
      <point x="399" y="0" type="move" name="bottom"/>
    </contour>
  </outline>
</glyph>
<glyph name="N" format="1">
  <advance width="683"/>
  <unicode hex="004E"/>
  <outline>
    <contour>
      <point x="122" y="0" type="line"/>
      <point x="122" y="561" type="line"/>
      <point x="108" y="561" type="line"/>
      <point x="558" y="0" type="line"/>
      <point x="595" y="0" type="line"/>
      <point x="595" y="595" type="line"/>
      <point x="562" y="595" type="line"/>
      <point x="562" y="34" type="line"/>
      <point x="575" y="34" type="line"/>
      <point x="125" y="595" type="line"/>
      <point x="89" y="595" type="line"/>
      <point x="89" y="0" type="line"/>
    </contour>
    <contour>
      <point x="342" y="611" type="move" name="top"/>
    </contour>
    <contour>
      <point x="342" y="0" type="move" name="bottom"/>
    </contour>
  </outline>
</glyph>
<glyph name="O" format="1">
  <advance width="670"/>
  <unicode hex="004F"/>
  <outline>
    <contour>
      <point x="614" y="297" type="curve" smooth="yes"/>
      <point x="614" y="510"/>
      <point x="500" y="602"/>
      <point x="335" y="602" type="curve" smooth="yes"/>
      <point x="173" y="602"/>
      <point x="56" y="510"/>
      <point x="56" y="297" type="curve" smooth="yes"/>
      <point x="56" y="85"/>
      <point x="170" y="-7"/>
      <point x="335" y="-7" type="curve" smooth="yes"/>
      <point x="498" y="-7"/>
      <point x="614" y="85"/>
    </contour>
    <contour>
      <point x="92" y="299" type="curve" smooth="yes"/>
      <point x="92" y="493"/>
      <point x="191" y="569"/>
      <point x="335" y="569" type="curve" smooth="yes"/>
      <point x="479" y="569"/>
      <point x="579" y="493"/>
      <point x="579" y="296" type="curve" smooth="yes"/>
      <point x="579" y="102"/>
      <point x="479" y="26"/>
      <point x="335" y="26" type="curve" smooth="yes"/>
      <point x="191" y="26"/>
      <point x="92" y="102"/>
    </contour>
    <contour>
      <point x="335" y="0" type="move" name="bottom"/>
    </contour>
    <contour>
      <point x="412" y="0" type="move" name="ogonek"/>
    </contour>
    <contour>
      <point x="335" y="611" type="move" name="top"/>
    </contour>
    <contour>
      <point x="412" y="595" type="move" name="topright"/>
    </contour>
    <contour>
      <point x="19" y="595" type="move" name="topleft"/>
    </contour>
    <contour>
      <point x="335" y="297" type="move" name="center"/>
    </contour>
  </outline>
</glyph>
<glyph name="P" format="1">
  <advance width="559"/>
  <unicode hex="0050"/>
  <outline>
    <contour>
      <point x="123" y="0" type="line"/>
      <point x="123" y="211" type="line"/>
      <point x="165" y="207"/>
      <point x="197" y="206"/>
      <point x="237" y="206" type="curve" smooth="yes"/>
      <point x="434" y="206"/>
      <point x="516" y="277"/>
      <point x="516" y="405" type="curve" smooth="yes"/>
      <point x="516" y="541"/>
      <point x="424" y="601"/>
      <point x="259" y="601" type="curve" smooth="yes"/>
      <point x="197" y="601"/>
      <point x="149" y="596"/>
      <point x="89" y="584" type="curve"/>
      <point x="89" y="0" type="line"/>
    </contour>
    <contour>
      <point x="123" y="244" type="curve"/>
      <point x="123" y="558" type="line"/>
      <point x="163" y="565"/>
      <point x="206" y="569"/>
      <point x="259" y="569" type="curve" smooth="yes"/>
      <point x="406" y="569"/>
      <point x="481" y="519"/>
      <point x="481" y="404" type="curve" smooth="yes"/>
      <point x="481" y="294"/>
      <point x="413" y="237"/>
      <point x="237" y="237" type="curve" smooth="yes"/>
      <point x="193" y="237"/>
      <point x="159" y="240"/>
    </contour>
  </outline>
</glyph>
<glyph name="Q" format="1">
  <advance width="670"/>
  <unicode hex="0051"/>
  <outline>
    <contour>
      <point x="601" y="-44" type="line"/>
      <point x="497" y="-38"/>
      <point x="375" y="-22"/>
      <point x="299" y="7" type="curve"/>
      <point x="292" y="-2" type="line"/>
      <point x="499" y="-23"/>
      <point x="614" y="80"/>
      <point x="614" y="297" type="curve" smooth="yes"/>
      <point x="614" y="515"/>
      <point x="498" y="602"/>
      <point x="335" y="602" type="curve" smooth="yes"/>
      <point x="173" y="602"/>
      <point x="56" y="510"/>
      <point x="56" y="297" type="curve" smooth="yes"/>
      <point x="56" y="60"/>
      <point x="178" y="-42"/>
      <point x="597" y="-77" type="curve"/>
    </contour>
    <contour>
      <point x="92" y="299" type="curve" smooth="yes"/>
      <point x="92" y="493"/>
      <point x="191" y="569"/>
      <point x="335" y="569" type="curve" smooth="yes"/>
      <point x="479" y="569"/>
      <point x="579" y="493"/>
      <point x="579" y="296" type="curve" smooth="yes"/>
      <point x="579" y="102"/>
      <point x="479" y="26"/>
      <point x="335" y="26" type="curve" smooth="yes"/>
      <point x="191" y="26"/>
      <point x="92" y="102"/>
    </contour>
  </outline>
</glyph>
<glyph name="R" format="1">
  <advance width="616"/>
  <unicode hex="0052"/>
  <outline>
    <contour>
      <point x="123" y="0" type="line"/>
      <point x="123" y="264" type="line"/>
      <point x="165" y="260"/>
      <point x="198" y="258"/>
      <point x="245" y="258" type="curve" smooth="yes"/>
      <point x="431" y="258"/>
      <point x="519" y="316"/>
      <point x="519" y="431" type="curve" smooth="yes"/>
      <point x="519" y="552"/>
      <point x="438" y="601"/>
      <point x="264" y="601" type="curve" smooth="yes"/>
      <point x="189" y="601"/>
      <point x="137" y="593"/>
      <point x="89" y="584" type="curve"/>
      <point x="89" y="0" type="line"/>
    </contour>
    <contour>
      <point x="562" y="0" type="line"/>
      <point x="307" y="284" type="line"/>
      <point x="266" y="284" type="line"/>
      <point x="520" y="0" type="line"/>
    </contour>
    <contour>
      <point x="123" y="295" type="curve"/>
      <point x="123" y="557" type="line"/>
      <point x="165" y="564"/>
      <point x="201" y="569"/>
      <point x="264" y="569" type="curve" smooth="yes"/>
      <point x="419" y="569"/>
      <point x="485" y="534"/>
      <point x="485" y="429" type="curve" smooth="yes"/>
      <point x="485" y="337"/>
      <point x="417" y="290"/>
      <point x="246" y="290" type="curve" smooth="yes"/>
      <point x="192" y="290"/>
      <point x="168" y="292"/>
    </contour>
    <contour>
      <point x="288" y="611" type="move" name="top"/>
    </contour>
    <contour>
      <point x="308" y="0" type="move" name="bottom"/>
    </contour>
  </outline>
</glyph>
<glyph name="S" format="1">
  <advance width="491"/>
  <unicode hex="0053"/>
  <outline>
    <contour>
      <point x="450" y="156" type="curve" smooth="yes"/>
      <point x="450" y="239"/>
      <point x="400" y="287"/>
      <point x="252" y="313" type="curve" smooth="yes"/>
      <point x="119" y="337"/>
      <point x="76" y="369"/>
      <point x="76" y="444" type="curve" smooth="yes"/>
      <point x="76" y="525"/>
      <point x="139" y="570"/>
      <point x="265" y="570" type="curve" smooth="yes"/>
      <point x="318" y="570"/>
      <point x="371" y="563"/>
      <point x="423" y="547" type="curve"/>
      <point x="423" y="581" type="line"/>
      <point x="375" y="595"/>
      <point x="321" y="602"/>
      <point x="266" y="602" type="curve" smooth="yes"/>
      <point x="116" y="602"/>
      <point x="41" y="540"/>
      <point x="41" y="442" type="curve" smooth="yes"/>
      <point x="41" y="353"/>
      <point x="95" y="307"/>
      <point x="243" y="280" type="curve" smooth="yes"/>
      <point x="372" y="257"/>
      <point x="414" y="226"/>
      <point x="414" y="155" type="curve" smooth="yes"/>
      <point x="414" y="70"/>
      <point x="350" y="25"/>
      <point x="218" y="25" type="curve" smooth="yes"/>
      <point x="168" y="25"/>
      <point x="110" y="33"/>
      <point x="49" y="52" type="curve"/>
      <point x="49" y="18" type="line"/>
      <point x="103" y="1"/>
      <point x="164" y="-7"/>
      <point x="217" y="-7" type="curve" smooth="yes"/>
      <point x="366" y="-7"/>
      <point x="450" y="51"/>
    </contour>
    <contour>
      <point x="248" y="611" type="move" name="top"/>
    </contour>
    <contour>
      <point x="248" y="0" type="move" name="bottom"/>
    </contour>
  </outline>
</glyph>
<glyph name="T" format="1">
  <advance width="530"/>
  <unicode hex="0054"/>
  <outline>
    <contour>
      <point x="282" y="0" type="line"/>
      <point x="282" y="562" type="line"/>
      <point x="524" y="562" type="line"/>
      <point x="524" y="595" type="line"/>
      <point x="6" y="595" type="line"/>
      <point x="6" y="562" type="line"/>
      <point x="248" y="562" type="line"/>
      <point x="248" y="0" type="line"/>
    </contour>
    <contour>
      <point x="265" y="611" type="move" name="top"/>
    </contour>
    <contour>
      <point x="265" y="320" type="move" name="center"/>
    </contour>
    <contour>
      <point x="265" y="0" type="move" name="bottom"/>
    </contour>
  </outline>
</glyph>
<glyph name="U" format="1">
  <advance width="658"/>
  <unicode hex="0055"/>
  <outline>
    <contour>
      <point x="572" y="230" type="curve" smooth="yes"/>
      <point x="572" y="595" type="line"/>
      <point x="539" y="595" type="line"/>
      <point x="539" y="226" type="line" smooth="yes"/>
      <point x="539" y="85"/>
      <point x="473" y="25"/>
      <point x="329" y="25" type="curve" smooth="yes"/>
      <point x="186" y="25"/>
      <point x="119" y="85"/>
      <point x="119" y="226" type="curve" smooth="yes"/>
      <point x="119" y="595" type="line"/>
      <point x="85" y="595" type="line"/>
      <point x="85" y="230" type="line" smooth="yes"/>
      <point x="85" y="64"/>
      <point x="164" y="-7"/>
      <point x="329" y="-7" type="curve" smooth="yes"/>
      <point x="494" y="-7"/>
      <point x="572" y="64"/>
    </contour>
    <contour>
      <point x="396" y="2" type="move" name="ogonek"/>
    </contour>
    <contour>
      <point x="329" y="611" type="move" name="top"/>
    </contour>
    <contour>
      <point x="539" y="595" type="move" name="topright"/>
    </contour>
    <contour>
      <point x="329" y="0" type="move" name="bottom"/>
    </contour>
  </outline>
</glyph>
<glyph name="V" format="1">
  <advance width="594"/>
  <unicode hex="0056"/>
  <outline>
    <contour>
      <point x="321" y="0" type="line"/>
      <point x="587" y="595" type="line"/>
      <point x="551" y="595" type="line"/>
      <point x="295" y="19" type="line"/>
      <point x="303" y="19" type="line"/>
      <point x="45" y="595" type="line"/>
      <point x="8" y="595" type="line"/>
      <point x="274" y="0" type="line"/>
    </contour>
  </outline>
</glyph>
<glyph name="W" format="1">
  <advance width="970"/>
  <unicode hex="0057"/>
  <outline>
    <contour>
      <point x="286" y="0" type="line"/>
      <point x="490" y="573" type="line"/>
      <point x="480" y="573" type="line"/>
      <point x="684" y="0" type="line"/>
      <point x="731" y="0" type="line"/>
      <point x="938" y="595" type="line"/>
      <point x="903" y="595" type="line"/>
      <point x="704" y="20" type="line"/>
      <point x="711" y="20" type="line"/>
      <point x="508" y="595" type="line"/>
      <point x="463" y="595" type="line"/>
      <point x="260" y="20" type="line"/>
      <point x="268" y="20" type="line"/>
      <point x="68" y="595" type="line"/>
      <point x="32" y="595" type="line"/>
      <point x="240" y="0" type="line"/>
    </contour>
    <contour>
      <point x="486" y="611" type="move" name="top"/>
    </contour>
    <contour>
      <point x="486" y="0" type="move" name="bottom"/>
    </contour>
  </outline>
</glyph>
<glyph name="X" format="1">
  <advance width="582"/>
  <unicode hex="0058"/>
  <outline>
    <contour>
      <point x="569" y="0" type="line"/>
      <point x="312" y="301" type="line"/>
      <point x="291" y="328" type="line"/>
      <point x="61" y="595" type="line"/>
      <point x="17" y="595" type="line"/>
      <point x="269" y="300" type="line"/>
      <point x="290" y="274" type="line"/>
      <point x="525" y="0" type="line"/>
    </contour>
    <contour>
      <point x="55" y="0" type="line"/>
      <point x="290" y="274" type="line"/>
      <point x="312" y="301" type="line"/>
      <point x="564" y="595" type="line"/>
      <point x="522" y="595" type="line"/>
      <point x="291" y="328" type="line"/>
      <point x="269" y="300" type="line"/>
      <point x="12" y="0" type="line"/>
    </contour>
  </outline>
</glyph>
<glyph name="Y" format="1">
  <advance width="530"/>
  <unicode hex="0059"/>
  <outline>
    <contour>
      <point x="282" y="0" type="line"/>
      <point x="282" y="285" type="line"/>
      <point x="273" y="258" type="line"/>
      <point x="536" y="595" type="line"/>
      <point x="495" y="595" type="line"/>
      <point x="257" y="291" type="line"/>
      <point x="275" y="291" type="line"/>
      <point x="33" y="595" type="line"/>
      <point x="-10" y="595" type="line"/>
      <point x="257" y="258" type="line"/>
      <point x="248" y="285" type="line"/>
      <point x="248" y="0" type="line"/>
    </contour>
    <contour>
      <point x="4" y="595" type="move" name="topleft"/>
    </contour>
    <contour>
      <point x="265" y="611" type="move" name="top"/>
    </contour>
    <contour>
      <point x="265" y="0" type="move" name="bottom"/>
    </contour>
  </outline>
</glyph>
<glyph name="Z" format="1">
  <advance width="534"/>
  <unicode hex="005A"/>
  <outline>
    <contour>
      <point x="507" y="0" type="line"/>
      <point x="507" y="32" type="line"/>
      <point x="63" y="32" type="line"/>
      <point x="68" y="21" type="line"/>
      <point x="501" y="575" type="line"/>
      <point x="501" y="595" type="line"/>
      <point x="33" y="595" type="line"/>
      <point x="33" y="563" type="line"/>
      <point x="465" y="563" type="line"/>
      <point x="460" y="574" type="line"/>
      <point x="28" y="20" type="line"/>
      <point x="28" y="0" type="line"/>
    </contour>
    <contour>
      <point x="267" y="611" type="move" name="top"/>
    </contour>
    <contour>
      <point x="267" y="0" type="move" name="bottom"/>
    </contour>
  </outline>
</glyph>
<glyph name="a" format="1">
  <advance width="470"/>
  <unicode hex="0061"/>
  <outline>
    <contour>
      <point x="362" y="53" type="curve"/>
      <point x="365" y="53" type="line"/>
      <point x="368" y="0" type="line"/>
      <point x="398" y="0" type="line"/>
      <point x="398" y="293" type="line" smooth="yes"/>
      <point x="398" y="406"/>
      <point x="333" y="441"/>
      <point x="222" y="441" type="curve" smooth="yes"/>
      <point x="175" y="441"/>
      <point x="122" y="434"/>
      <point x="81" y="419" type="curve"/>
      <point x="81" y="387" type="line"/>
      <point x="131" y="404"/>
      <point x="182" y="409"/>
      <point x="222" y="409" type="curve" smooth="yes"/>
      <point x="312" y="409"/>
      <point x="364" y="386"/>
      <point x="364" y="293" type="curve" smooth="yes"/>
      <point x="364" y="89" type="line"/>
      <point x="320" y="46"/>
      <point x="263" y="25"/>
      <point x="204" y="25" type="curve" smooth="yes"/>
      <point x="125" y="25"/>
      <point x="90" y="57"/>
      <point x="90" y="111" type="curve" smooth="yes"/>
      <point x="90" y="163"/>
      <point x="126" y="191"/>
      <point x="222" y="202" type="curve" smooth="yes"/>
      <point x="381" y="220" type="line"/>
      <point x="382" y="250" type="line"/>
      <point x="222" y="232" type="line" smooth="yes"/>
      <point x="102" y="218"/>
      <point x="54" y="180"/>
      <point x="54" y="109" type="curve" smooth="yes"/>
      <point x="54" y="37"/>
      <point x="108" y="-7"/>
      <point x="202" y="-7" type="curve" smooth="yes"/>
      <point x="265" y="-7"/>
      <point x="327" y="18"/>
    </contour>
    <contour>
      <point x="234" y="482" type="move" name="top"/>
    </contour>
    <contour>
      <point x="398" y="0" type="move" name="ogonek"/>
    </contour>
    <contour>
      <point x="244" y="0" type="move" name="bottom"/>
    </contour>
  </outline>
</glyph>
<glyph name="o" format="1">
  <advance width="512"/>
  <unicode hex="006F"/>
  <outline>
    <contour>
      <point x="461" y="217" type="curve" smooth="yes"/>
      <point x="461" y="375"/>
      <point x="379" y="441"/>
      <point x="256" y="441" type="curve" smooth="yes"/>
      <point x="135" y="441"/>
      <point x="51" y="372"/>
      <point x="51" y="217" type="curve" smooth="yes"/>
      <point x="51" y="60"/>
      <point x="133" y="-7"/>
      <point x="256" y="-7" type="curve" smooth="yes"/>
      <point x="377" y="-7"/>
      <point x="461" y="63"/>
    </contour>
    <contour>
      <point x="87" y="218" type="curve" smooth="yes"/>
      <point x="87" y="356"/>
      <point x="153" y="409"/>
      <point x="256" y="409" type="curve" smooth="yes"/>
      <point x="359" y="409"/>
      <point x="425" y="356"/>
      <point x="425" y="217" type="curve" smooth="yes"/>
      <point x="425" y="78"/>
      <point x="359" y="25"/>
      <point x="256" y="25" type="curve" smooth="yes"/>
      <point x="153" y="25"/>
      <point x="87" y="78"/>
    </contour>
    <contour>
      <point x="256" y="217" type="move" name="center"/>
    </contour>
    <contour>
      <point x="319" y="0" type="move" name="ogonek"/>
    </contour>
    <contour>
      <point x="256" y="482" type="move" name="top"/>
    </contour>
    <contour>
      <point x="313" y="435" type="move" name="topright"/>
    </contour>
    <contour>
      <point x="256" y="0" type="move" name="bottom"/>
    </contour>
  </outline>
</glyph>
<glyph name="AE" format="1">
  <advance width="839"/>
  <unicode hex="00C6"/>
  <outline>
    <contour>
      <point x="54" y="0" type="line"/>
      <point x="311" y="563" type="line"/>
      <point x="392" y="563" type="line"/>
      <point x="394" y="595" type="line"/>
      <point x="289" y="595" type="line"/>
      <point x="18" y="0" type="line"/>
    </contour>
    <contour>
      <point x="433" y="208" type="line"/>
      <point x="433" y="241" type="line"/>
      <point x="151" y="241" type="line"/>
      <point x="141" y="208" type="line"/>
    </contour>
    <contour>
      <point x="795" y="0" type="line"/>
      <point x="795" y="32" type="line"/>
      <point x="465" y="32" type="line"/>
      <point x="416" y="563" type="line"/>
      <point x="791" y="563" type="line"/>
      <point x="791" y="595" type="line"/>
      <point x="380" y="595" type="line"/>
      <point x="433" y="0" type="line"/>
    </contour>
    <contour>
      <point x="748" y="290" type="line"/>
      <point x="748" y="322" type="line"/>
      <point x="430" y="322" type="line"/>
      <point x="430" y="290" type="line"/>
    </contour>
    <contour>
      <point x="398" y="611" type="move" name="top"/>
    </contour>
    <contour>
      <point x="448" y="0" type="move" name="bottom"/>
    </contour>
  </outline>
</glyph>
<glyph name="Eth" format="1">
  <advance width="652"/>
  <unicode hex="00D0"/>
  <outline>
    <contour>
      <point x="596" y="297" type="curve" smooth="yes"/>
      <point x="596" y="500"/>
      <point x="481" y="601"/>
      <point x="262" y="601" type="curve" smooth="yes"/>
      <point x="209" y="601"/>
      <point x="146" y="596"/>
      <point x="89" y="584" type="curve"/>
      <point x="89" y="6" type="line"/>
      <point x="154" y="-2"/>
      <point x="198" y="-4"/>
      <point x="255" y="-4" type="curve" smooth="yes"/>
      <point x="480" y="-4"/>
      <point x="596" y="95"/>
    </contour>
    <contour>
      <point x="123" y="37" type="curve"/>
      <point x="123" y="557" type="line"/>
      <point x="172" y="564"/>
      <point x="216" y="568"/>
      <point x="260" y="568" type="curve" smooth="yes"/>
      <point x="459" y="568"/>
      <point x="560" y="482"/>
      <point x="560" y="298" type="curve" smooth="yes"/>
      <point x="560" y="113"/>
      <point x="459" y="28"/>
      <point x="257" y="28" type="curve" smooth="yes"/>
      <point x="199" y="28"/>
      <point x="159" y="32"/>
    </contour>
    <contour>
      <point x="303" y="292" type="line"/>
      <point x="303" y="321" type="line"/>
      <point x="1" y="321" type="line"/>
      <point x="1" y="292" type="line"/>
    </contour>
    <contour>
      <point x="325" y="297" type="move" name="center"/>
    </contour>
    <contour>
      <point x="89" y="306" type="move" name="stroke"/>
    </contour>
    <contour>
      <point x="300" y="611" type="move" name="top"/>
    </contour>
    <contour>
      <point x="300" y="0" type="move" name="bottom"/>
    </contour>
  </outline>
</glyph>
<glyph name="Oslash" format="1">
  <advance width="670"/>
  <unicode hex="00D8"/>
  <outline>
    <contour>
      <point x="611" y="584" type="line"/>
      <point x="589" y="602" type="line"/>
      <point x="58" y="11" type="line"/>
      <point x="80" y="-7" type="line"/>
    </contour>
    <contour>
      <point x="614" y="297" type="curve" smooth="yes"/>
      <point x="614" y="510"/>
      <point x="500" y="602"/>
      <point x="335" y="602" type="curve" smooth="yes"/>
      <point x="173" y="602"/>
      <point x="56" y="510"/>
      <point x="56" y="297" type="curve" smooth="yes"/>
      <point x="56" y="85"/>
      <point x="170" y="-7"/>
      <point x="335" y="-7" type="curve" smooth="yes"/>
      <point x="498" y="-7"/>
      <point x="614" y="85"/>
    </contour>
    <contour>
      <point x="92" y="299" type="curve" smooth="yes"/>
      <point x="92" y="493"/>
      <point x="191" y="569"/>
      <point x="335" y="569" type="curve" smooth="yes"/>
      <point x="479" y="569"/>
      <point x="579" y="493"/>
      <point x="579" y="296" type="curve" smooth="yes"/>
      <point x="579" y="102"/>
      <point x="479" y="26"/>
      <point x="335" y="26" type="curve" smooth="yes"/>
      <point x="191" y="26"/>
      <point x="92" y="102"/>
    </contour>
    <contour>
      <point x="335" y="297" type="move" name="center"/>
    </contour>
    <contour>
      <point x="412" y="0" type="move" name="ogonek"/>
    </contour>
    <contour>
      <point x="335" y="0" type="move" name="bottom"/>
    </contour>
    <contour>
      <point x="335" y="297" type="move" name="_center"/>
    </contour>
    <contour>
      <point x="333" y="611" type="move" name="top"/>
    </contour>
    <contour>
      <point x="412" y="595" type="move" name="topright"/>
    </contour>
    <contour>
      <point x="19" y="595" type="move" name="topleft"/>
    </contour>
  </outline>
</glyph>
<glyph name="Thorn" format="1">
  <advance width="563"/>
  <unicode hex="00DE"/>
  <outline>
    <contour>
      <point x="123" y="0" type="line"/>
      <point x="123" y="113" type="line"/>
      <point x="165" y="110"/>
      <point x="197" y="108"/>
      <point x="237" y="108" type="curve" smooth="yes"/>
      <point x="434" y="108"/>
      <point x="516" y="180"/>
      <point x="516" y="307" type="curve" smooth="yes"/>
      <point x="516" y="443"/>
      <point x="424" y="503"/>
      <point x="259" y="503" type="curve" smooth="yes"/>
      <point x="200" y="503"/>
      <point x="160" y="498"/>
      <point x="123" y="492" type="curve"/>
      <point x="123" y="596" type="line"/>
      <point x="89" y="596" type="line"/>
      <point x="89" y="0" type="line"/>
    </contour>
    <contour>
      <point x="123" y="147" type="curve"/>
      <point x="123" y="460" type="line"/>
      <point x="163" y="467"/>
      <point x="206" y="471"/>
      <point x="259" y="471" type="curve" smooth="yes"/>
      <point x="406" y="471"/>
      <point x="481" y="421"/>
      <point x="481" y="306" type="curve" smooth="yes"/>
      <point x="481" y="197"/>
      <point x="413" y="140"/>
      <point x="237" y="140" type="curve" smooth="yes"/>
      <point x="193" y="140"/>
      <point x="159" y="142"/>
    </contour>
  </outline>
</glyph>
<glyph name="Hbar" format="1">
  <advance width="671"/>
  <unicode hex="0126"/>
  <outline>
    <contour>
      <point x="123" y="0" type="line"/>
      <point x="123" y="289" type="line"/>
      <point x="548" y="289" type="line"/>
      <point x="548" y="0" type="line"/>
      <point x="582" y="0" type="line"/>
      <point x="582" y="595" type="line"/>
      <point x="548" y="595" type="line"/>
      <point x="548" y="322" type="line"/>
      <point x="123" y="322" type="line"/>
      <point x="123" y="595" type="line"/>
      <point x="89" y="595" type="line"/>
      <point x="89" y="0" type="line"/>
    </contour>
    <contour>
      <point x="669" y="446" type="line"/>
      <point x="669" y="474" type="line"/>
      <point x="0" y="474" type="line"/>
      <point x="0" y="446" type="line"/>
    </contour>
    <contour>
      <point x="335" y="460" type="move" name="center"/>
    </contour>
    <contour>
      <point x="335" y="611" type="move" name="top"/>
    </contour>
    <contour>
      <point x="17" y="595" type="move" name="topleft"/>
    </contour>
    <contour>
      <point x="335" y="0" type="move" name="bottom"/>
    </contour>
  </outline>
</glyph>
<glyph name="Lslash" format="1">
  <advance width="494"/>
  <unicode hex="0141"/>
  <outline>
    <contour>
      <point x="275" y="415" type="line"/>
      <point x="258" y="438" type="line"/>
      <point x="-1" y="252" type="line"/>
      <point x="17" y="228" type="line"/>
    </contour>
    <contour>
      <point x="488" y="0" type="line"/>
      <point x="488" y="33" type="line"/>
      <point x="123" y="33" type="line"/>
      <point x="123" y="595" type="line"/>
      <point x="89" y="595" type="line"/>
      <point x="89" y="0" type="line"/>
    </contour>
    <contour>
      <point x="321" y="595" type="move" name="caronalt"/>
    </contour>
    <contour>
      <point x="106" y="611" type="move" name="top"/>
    </contour>
    <contour>
      <point x="348" y="314" type="move" name="periodcentered"/>
    </contour>
    <contour>
      <point x="106" y="313" type="move" name="_slash"/>
    </contour>
    <contour>
      <point x="106" y="313" type="move" name="slash"/>
    </contour>
    <contour>
      <point x="289" y="0" type="move" name="bottom"/>
    </contour>
  </outline>
</glyph>
<glyph name="OE" format="1">
  <advance width="952"/>
  <unicode hex="0152"/>
  <outline>
    <contour>
      <point x="549" y="0" type="curve" smooth="yes"/>
      <point x="909" y="0" type="line"/>
      <point x="909" y="32" type="line"/>
      <point x="546" y="32" type="line"/>
      <point x="546" y="563" type="line"/>
      <point x="905" y="563" type="line"/>
      <point x="905" y="595" type="line"/>
      <point x="541" y="595" type="line" smooth="yes"/>
      <point x="493" y="595"/>
      <point x="433" y="601"/>
      <point x="385" y="601" type="curve" smooth="yes"/>
      <point x="171" y="601"/>
      <point x="56" y="500"/>
      <point x="56" y="297" type="curve" smooth="yes"/>
      <point x="56" y="95"/>
      <point x="171" y="-4"/>
      <point x="388" y="-4" type="curve" smooth="yes"/>
      <point x="437" y="-4"/>
      <point x="507" y="0"/>
    </contour>
    <contour>
      <point x="92" y="297" type="curve" smooth="yes"/>
      <point x="92" y="482"/>
      <point x="193" y="568"/>
      <point x="386" y="568" type="curve" smooth="yes"/>
      <point x="435" y="568"/>
      <point x="471" y="566"/>
      <point x="512" y="562" type="curve"/>
      <point x="512" y="33" type="line"/>
      <point x="484" y="30"/>
      <point x="444" y="29"/>
      <point x="386" y="29" type="curve" smooth="yes"/>
      <point x="193" y="29"/>
      <point x="92" y="113"/>
    </contour>
    <contour>
      <point x="862" y="290" type="line"/>
      <point x="862" y="322" type="line"/>
      <point x="540" y="322" type="line"/>
      <point x="540" y="290" type="line"/>
    </contour>
    <contour>
      <point x="529" y="611" type="move" name="top"/>
    </contour>
    <contour>
      <point x="529" y="0" type="move" name="bottom"/>
    </contour>
  </outline>
</glyph>
<glyph name="Tbar" format="1">
  <advance width="530"/>
  <unicode hex="0166"/>
  <outline>
    <contour>
      <point x="442" y="305" type="line"/>
      <point x="442" y="333" type="line"/>
      <point x="87" y="333" type="line"/>
      <point x="87" y="305" type="line"/>
    </contour>
    <contour>
      <point x="282" y="0" type="line"/>
      <point x="282" y="562" type="line"/>
      <point x="524" y="562" type="line"/>
      <point x="524" y="595" type="line"/>
      <point x="6" y="595" type="line"/>
      <point x="6" y="562" type="line"/>
      <point x="248" y="562" type="line"/>
      <point x="248" y="0" type="line"/>
    </contour>
    <contour>
      <point x="265" y="320" type="move" name="center"/>
    </contour>
    <contour>
      <point x="265" y="611" type="move" name="top"/>
    </contour>
    <contour>
      <point x="265" y="320" type="move" name="_center"/>
    </contour>
    <contour>
      <point x="265" y="0" type="move" name="bottom"/>
    </contour>
  </outline>
</glyph>
<glyph name="Ohorn" format="1">
  <advance width="670"/>
  <unicode hex="01A0"/>
  <outline>
    <contour>
      <point x="614" y="297" type="curve" smooth="yes"/>
      <point x="614" y="441"/>
      <point x="563" y="528"/>
      <point x="483" y="570" type="curve"/>
      <point x="484" y="562" type="line"/>
      <point x="571" y="562"/>
      <point x="615" y="598"/>
      <point x="615" y="656" type="curve" smooth="yes"/>
      <point x="615" y="680"/>
      <point x="611" y="695"/>
      <point x="604" y="714" type="curve"/>
      <point x="573" y="714" type="line"/>
      <point x="579" y="695"/>
      <point x="584" y="679"/>
      <point x="584" y="657" type="curve" smooth="yes"/>
      <point x="584" y="613"/>
      <point x="550" y="592"/>
      <point x="490" y="592" type="curve" smooth="yes"/>
      <point x="424" y="592"/>
      <point x="386" y="602"/>
      <point x="335" y="602" type="curve" smooth="yes"/>
      <point x="173" y="602"/>
      <point x="56" y="510"/>
      <point x="56" y="297" type="curve" smooth="yes"/>
      <point x="56" y="85"/>
      <point x="170" y="-7"/>
      <point x="335" y="-7" type="curve" smooth="yes"/>
      <point x="500" y="-7"/>
      <point x="614" y="80"/>
    </contour>
    <contour>
      <point x="92" y="299" type="curve" smooth="yes"/>
      <point x="92" y="493"/>
      <point x="191" y="569"/>
      <point x="335" y="569" type="curve" smooth="yes"/>
      <point x="479" y="569"/>
      <point x="579" y="493"/>
      <point x="579" y="296" type="curve" smooth="yes"/>
      <point x="579" y="102"/>
      <point x="479" y="26"/>
      <point x="335" y="26" type="curve" smooth="yes"/>
      <point x="191" y="26"/>
      <point x="92" y="102"/>
    </contour>
    <contour>
      <point x="335" y="611" type="move" name="top"/>
    </contour>
    <contour>
      <point x="335" y="0" type="move" name="bottom"/>
    </contour>
  </outline>
</glyph>
<glyph name="Uhorn" format="1">
  <advance width="658"/>
  <unicode hex="01AF"/>
  <outline>
    <contour>
      <point x="669" y="714" type="curve"/>
      <point x="638" y="714" type="line"/>
      <point x="645" y="695"/>
      <point x="649" y="679"/>
      <point x="649" y="657" type="curve" smooth="yes"/>
      <point x="649" y="613"/>
      <point x="616" y="595"/>
      <point x="555" y="595" type="curve" smooth="yes"/>
      <point x="539" y="595" type="line"/>
      <point x="539" y="226" type="line" smooth="yes"/>
      <point x="539" y="85"/>
      <point x="473" y="25"/>
      <point x="329" y="25" type="curve" smooth="yes"/>
      <point x="186" y="25"/>
      <point x="119" y="85"/>
      <point x="119" y="226" type="curve" smooth="yes"/>
      <point x="119" y="595" type="line"/>
      <point x="85" y="595" type="line"/>
      <point x="85" y="230" type="line" smooth="yes"/>
      <point x="85" y="64"/>
      <point x="164" y="-7"/>
      <point x="329" y="-7" type="curve" smooth="yes"/>
      <point x="494" y="-7"/>
      <point x="572" y="64"/>
      <point x="572" y="230" type="curve" smooth="yes"/>
      <point x="572" y="567" type="line"/>
      <point x="642" y="570"/>
      <point x="680" y="603"/>
      <point x="680" y="656" type="curve" smooth="yes"/>
      <point x="680" y="680"/>
      <point x="677" y="695"/>
    </contour>
    <contour>
      <point x="329" y="611" type="move" name="top"/>
    </contour>
    <contour>
      <point x="329" y="0" type="move" name="bottom"/>
    </contour>
  </outline>
</glyph>
<glyph name="Germandbls" format="1">
  <advance width="787"/>
  <outline>
    <contour>
      <point x="746" y="156" type="curve" smooth="yes"/>
      <point x="746" y="239"/>
      <point x="696" y="287"/>
      <point x="549" y="313" type="curve" smooth="yes"/>
      <point x="416" y="337"/>
      <point x="373" y="369"/>
      <point x="373" y="444" type="curve" smooth="yes"/>
      <point x="373" y="525"/>
      <point x="436" y="570"/>
      <point x="562" y="570" type="curve" smooth="yes"/>
      <point x="615" y="570"/>
      <point x="667" y="563"/>
      <point x="720" y="547" type="curve"/>
      <point x="720" y="581" type="line"/>
      <point x="671" y="595"/>
      <point x="617" y="602"/>
      <point x="563" y="602" type="curve" smooth="yes"/>
      <point x="413" y="602"/>
      <point x="338" y="540"/>
      <point x="338" y="442" type="curve" smooth="yes"/>
      <point x="338" y="353"/>
      <point x="392" y="308"/>
      <point x="540" y="280" type="curve" smooth="yes"/>
      <point x="668" y="257"/>
      <point x="711" y="226"/>
      <point x="711" y="155" type="curve" smooth="yes"/>
      <point x="711" y="70"/>
      <point x="646" y="25"/>
      <point x="515" y="25" type="curve" smooth="yes"/>
      <point x="465" y="25"/>
      <point x="407" y="33"/>
      <point x="346" y="52" type="curve"/>
      <point x="346" y="18" type="line"/>
      <point x="400" y="1"/>
      <point x="461" y="-7"/>
      <point x="514" y="-7" type="curve" smooth="yes"/>
      <point x="663" y="-7"/>
      <point x="746" y="51"/>
    </contour>
    <contour>
      <point x="123" y="0" type="line"/>
      <point x="123" y="371" type="line" smooth="yes"/>
      <point x="123" y="511"/>
      <point x="189" y="570"/>
      <point x="332" y="570" type="curve" smooth="yes"/>
      <point x="373" y="570"/>
      <point x="407" y="565"/>
      <point x="435" y="555" type="curve"/>
      <point x="470" y="575" type="line"/>
      <point x="435" y="594"/>
      <point x="389" y="602"/>
      <point x="332" y="602" type="curve" smooth="yes"/>
      <point x="168" y="602"/>
      <point x="89" y="531"/>
      <point x="89" y="366" type="curve" smooth="yes"/>
      <point x="89" y="0" type="line"/>
    </contour>
  </outline>
</glyph>
<glyph name="Schwa" format="1">
  <advance width="671"/>
  <outline>
    <contour>
      <point x="615" y="296" type="curve" smooth="yes"/>
      <point x="615" y="512"/>
      <point x="482" y="602"/>
      <point x="271" y="602" type="curve" smooth="yes"/>
      <point x="209" y="602"/>
      <point x="148" y="597"/>
      <point x="85" y="581" type="curve"/>
      <point x="85" y="547" type="line"/>
      <point x="147" y="563"/>
      <point x="216" y="570"/>
      <point x="271" y="570" type="curve" smooth="yes"/>
      <point x="463" y="570"/>
      <point x="579" y="493"/>
      <point x="579" y="295" type="curve" smooth="yes"/>
      <point x="579" y="101"/>
      <point x="480" y="26"/>
      <point x="339" y="26" type="curve" smooth="yes"/>
      <point x="187" y="26"/>
      <point x="87" y="101"/>
      <point x="87" y="295" type="curve"/>
      <point x="71" y="284" type="line"/>
      <point x="593" y="284" type="line"/>
      <point x="593" y="315" type="line"/>
      <point x="51" y="315" type="line"/>
      <point x="51" y="290" type="line" smooth="yes"/>
      <point x="51" y="80"/>
      <point x="168" y="-7"/>
      <point x="339" y="-7" type="curve" smooth="yes"/>
      <point x="501" y="-7"/>
      <point x="615" y="80"/>
    </contour>
    <contour>
      <point x="334" y="610" type="move" name="top"/>
    </contour>
    <contour>
      <point x="334" y="0" type="move" name="bottom"/>
    </contour>
  </outline>
</glyph>
<glyph name="eight.tf" format="1">
  <advance width="515"/>
  <outline>
    <contour>
      <point x="477" y="152" type="curve" smooth="yes"/>
      <point x="477" y="236"/>
      <point x="420" y="287"/>
      <point x="275" y="312" type="curve" smooth="yes"/>
      <point x="142" y="335"/>
      <point x="96" y="375"/>
      <point x="96" y="451" type="curve" smooth="yes"/>
      <point x="96" y="526"/>
      <point x="150" y="571"/>
      <point x="255" y="571" type="curve" smooth="yes"/>
      <point x="358" y="571"/>
      <point x="420" y="530"/>
      <point x="420" y="450" type="curve" smooth="yes"/>
      <point x="420" y="381"/>
      <point x="383" y="337"/>
      <point x="296" y="305" type="curve"/>
      <point x="325" y="290" type="line"/>
      <point x="408" y="319"/>
      <point x="454" y="373"/>
      <point x="454" y="452" type="curve" smooth="yes"/>
      <point x="454" y="546"/>
      <point x="381" y="602"/>
      <point x="256" y="602" type="curve" smooth="yes"/>
      <point x="133" y="602"/>
      <point x="61" y="545"/>
      <point x="61" y="450" type="curve" smooth="yes"/>
      <point x="61" y="361"/>
      <point x="118" y="307"/>
      <point x="267" y="281" type="curve" smooth="yes"/>
      <point x="393" y="259"/>
      <point x="442" y="222"/>
      <point x="442" y="150" type="curve" smooth="yes"/>
      <point x="442" y="69"/>
      <point x="379" y="24"/>
      <point x="263" y="24" type="curve" smooth="yes"/>
      <point x="140" y="24"/>
      <point x="72" y="69"/>
      <point x="72" y="154" type="curve" smooth="yes"/>
      <point x="72" y="223"/>
      <point x="118" y="279"/>
      <point x="207" y="302" type="curve"/>
      <point x="174" y="317" type="line"/>
      <point x="88" y="290"/>
      <point x="38" y="234"/>
      <point x="38" y="152" type="curve" smooth="yes"/>
      <point x="38" y="48"/>
      <point x="117" y="-7"/>
      <point x="262" y="-7" type="curve" smooth="yes"/>
      <point x="401" y="-7"/>
      <point x="477" y="54"/>
    </contour>
  </outline>
</glyph>
<glyph name="five.tf" format="1">
  <advance width="515"/>
  <outline>
    <contour>
      <point x="472" y="167" type="curve" smooth="yes"/>
      <point x="472" y="271"/>
      <point x="395" y="325"/>
      <point x="184" y="336" type="curve" smooth="yes"/>
      <point x="93" y="341" type="line"/>
      <point x="117" y="321" type="line"/>
      <point x="138" y="575" type="line"/>
      <point x="120" y="564" type="line"/>
      <point x="444" y="564" type="line"/>
      <point x="444" y="595" type="line"/>
      <point x="107" y="595" type="line"/>
      <point x="83" y="309" type="line"/>
      <point x="175" y="304" type="line" smooth="yes"/>
      <point x="371" y="294"/>
      <point x="437" y="252"/>
      <point x="437" y="166" type="curve" smooth="yes"/>
      <point x="437" y="72"/>
      <point x="366" y="25"/>
      <point x="225" y="25" type="curve" smooth="yes"/>
      <point x="169" y="25"/>
      <point x="109" y="34"/>
      <point x="52" y="51" type="curve"/>
      <point x="52" y="18" type="line"/>
      <point x="104" y="2"/>
      <point x="166" y="-7"/>
      <point x="223" y="-7" type="curve" smooth="yes"/>
      <point x="387" y="-7"/>
      <point x="472" y="54"/>
    </contour>
  </outline>
</glyph>
<glyph name="four.tf" format="1">
  <advance width="515"/>
  <outline>
    <contour>
      <point x="499" y="152" type="line"/>
      <point x="499" y="183" type="line"/>
      <point x="49" y="183" type="line"/>
      <point x="57" y="171" type="line"/>
      <point x="334" y="595" type="line"/>
      <point x="296" y="595" type="line"/>
      <point x="20" y="172" type="line"/>
      <point x="20" y="152" type="line"/>
    </contour>
    <contour>
      <point x="397" y="0" type="line"/>
      <point x="397" y="394" type="line"/>
      <point x="370" y="394" type="line"/>
      <point x="364" y="183" type="line"/>
      <point x="364" y="0" type="line"/>
    </contour>
  </outline>
</glyph>
<glyph name="nine.tf" format="1">
  <advance width="515"/>
  <outline>
    <contour>
      <point x="34" y="432" type="curve" smooth="yes"/>
      <point x="34" y="318"/>
      <point x="110" y="260"/>
      <point x="242" y="260" type="curve" smooth="yes"/>
      <point x="307" y="260"/>
      <point x="377" y="280"/>
      <point x="422" y="313" type="curve"/>
      <point x="422" y="347" type="line"/>
      <point x="376" y="308"/>
      <point x="300" y="292"/>
      <point x="245" y="292" type="curve" smooth="yes"/>
      <point x="130" y="292"/>
      <point x="68" y="338"/>
      <point x="68" y="433" type="curve" smooth="yes"/>
      <point x="68" y="528"/>
      <point x="131" y="571"/>
      <point x="225" y="571" type="curve" smooth="yes"/>
      <point x="345" y="571"/>
      <point x="414" y="502"/>
      <point x="414" y="318" type="curve" smooth="yes"/>
      <point x="414" y="310" type="line" smooth="yes"/>
      <point x="414" y="117"/>
      <point x="336" y="25"/>
      <point x="182" y="25" type="curve" smooth="yes"/>
      <point x="147" y="25"/>
      <point x="99" y="30"/>
      <point x="62" y="44" type="curve"/>
      <point x="62" y="11" type="line"/>
      <point x="98" y="-2"/>
      <point x="142" y="-7"/>
      <point x="183" y="-7" type="curve" smooth="yes"/>
      <point x="355" y="-7"/>
      <point x="449" y="100"/>
      <point x="449" y="316" type="curve" smooth="yes"/>
      <point x="449" y="520"/>
      <point x="364" y="602"/>
      <point x="225" y="602" type="curve" smooth="yes"/>
      <point x="113" y="602"/>
      <point x="34" y="545"/>
    </contour>
  </outline>
</glyph>
<glyph name="one.tf" format="1">
  <advance width="515"/>
  <outline>
    <contour>
      <point x="302" y="0" type="line"/>
      <point x="302" y="597" type="line"/>
      <point x="279" y="597" type="line"/>
      <point x="94" y="472" type="line"/>
      <point x="94" y="432" type="line"/>
      <point x="279" y="556" type="line"/>
      <point x="268" y="564" type="line"/>
      <point x="268" y="0" type="line"/>
    </contour>
    <contour>
      <point x="468" y="0" type="line"/>
      <point x="468" y="32" type="line"/>
      <point x="94" y="32" type="line"/>
      <point x="94" y="0" type="line"/>
    </contour>
  </outline>
</glyph>
<glyph name="seven.tf" format="1">
  <advance width="515"/>
  <outline>
    <contour>
      <point x="150" y="0" type="line"/>
      <point x="463" y="575" type="line"/>
      <point x="463" y="595" type="line"/>
      <point x="28" y="595" type="line"/>
      <point x="28" y="563" type="line"/>
      <point x="436" y="563" type="line"/>
      <point x="427" y="576" type="line"/>
      <point x="112" y="0" type="line"/>
    </contour>
  </outline>
</glyph>
<glyph name="six.tf" format="1">
  <advance width="515"/>
  <outline>
    <contour>
      <point x="481" y="163" type="curve" smooth="yes"/>
      <point x="481" y="277"/>
      <point x="405" y="335"/>
      <point x="273" y="335" type="curve" smooth="yes"/>
      <point x="209" y="335"/>
      <point x="138" y="315"/>
      <point x="93" y="282" type="curve"/>
      <point x="93" y="248" type="line"/>
      <point x="140" y="287"/>
      <point x="216" y="303"/>
      <point x="271" y="303" type="curve" smooth="yes"/>
      <point x="386" y="303"/>
      <point x="447" y="257"/>
      <point x="447" y="162" type="curve" smooth="yes"/>
      <point x="447" y="67"/>
      <point x="384" y="24"/>
      <point x="291" y="24" type="curve" smooth="yes"/>
      <point x="170" y="24"/>
      <point x="101" y="93"/>
      <point x="101" y="277" type="curve" smooth="yes"/>
      <point x="101" y="285" type="line" smooth="yes"/>
      <point x="101" y="478"/>
      <point x="179" y="570"/>
      <point x="334" y="570" type="curve" smooth="yes"/>
      <point x="369" y="570"/>
      <point x="417" y="565"/>
      <point x="453" y="551" type="curve"/>
      <point x="453" y="584" type="line"/>
      <point x="418" y="597"/>
      <point x="373" y="602"/>
      <point x="332" y="602" type="curve" smooth="yes"/>
      <point x="160" y="602"/>
      <point x="67" y="495"/>
      <point x="67" y="279" type="curve" smooth="yes"/>
      <point x="67" y="75"/>
      <point x="152" y="-7"/>
      <point x="291" y="-7" type="curve" smooth="yes"/>
      <point x="402" y="-7"/>
      <point x="481" y="50"/>
    </contour>
  </outline>
</glyph>
<glyph name="slashcomb.case" format="1">
  <advance width="685"/>
  <outline>
    <contour>
      <point x="619" y="584" type="line"/>
      <point x="597" y="602" type="line"/>
      <point x="66" y="11" type="line"/>
      <point x="88" y="-7" type="line"/>
    </contour>
    <contour>
      <point x="343" y="297" type="move" name="_center"/>
    </contour>
  </outline>
</glyph>
<glyph name="slashcomb" format="1">
  <advance width="678"/>
  <outline>
    <contour>
      <point x="209" y="38" type="line"/>
      <point x="221" y="55" type="line"/>
      <point x="479" y="362" type="line"/>
      <point x="492" y="378" type="line"/>
      <point x="530" y="425" type="line"/>
      <point x="508" y="442" type="line"/>
      <point x="470" y="396" type="line"/>
      <point x="457" y="380" type="line"/>
      <point x="200" y="72" type="line"/>
      <point x="187" y="56" type="line"/>
      <point x="148" y="10" type="line"/>
      <point x="170" y="-8" type="line"/>
    </contour>
    <contour>
      <point x="339" y="217" type="move" name="_center"/>
    </contour>
  </outline>
</glyph>
<glyph name="slashshortcomb.case" format="1">
  <advance width="345"/>
  <outline>
    <contour>
      <point x="340" y="413" type="line"/>
      <point x="323" y="436" type="line"/>
      <point x="64" y="250" type="line"/>
      <point x="82" y="226" type="line"/>
    </contour>
    <contour>
      <point x="171" y="311" type="move" name="_slash"/>
    </contour>
  </outline>
</glyph>
<glyph name="slashshortcomb" format="1">
  <advance width="342"/>
  <outline>
    <contour>
      <point x="266" y="361" type="line"/>
      <point x="248" y="384" type="line"/>
      <point x="78" y="261" type="line"/>
      <point x="95" y="238" type="line"/>
    </contour>
    <contour>
      <point x="171" y="311" type="move" name="_slash"/>
    </contour>
  </outline>
</glyph>
<glyph name="strokelongcomb.case" format="1">
  <advance width="671"/>
  <outline>
    <contour>
      <point x="672" y="422" type="line"/>
      <point x="672" y="450" type="line"/>
      <point x="3" y="450" type="line"/>
      <point x="3" y="422" type="line"/>
    </contour>
    <contour>
      <point x="338" y="436" type="move" name="_center"/>
    </contour>
  </outline>
</glyph>
<glyph name="strokeshortcomb.D" format="1">
  <advance width="516"/>
  <outline>
    <contour>
      <point x="401" y="420" type="line"/>
      <point x="401" y="449" type="line"/>
      <point x="99" y="449" type="line"/>
      <point x="99" y="420" type="line"/>
    </contour>
    <contour>
      <point x="186" y="435" type="move" name="_stroke"/>
    </contour>
  </outline>
</glyph>
<glyph name="strokeshortcomb.case" format="1">
  <advance width="432"/>
  <outline>
    <contour>
      <point x="394" y="420" type="line"/>
      <point x="394" y="448" type="line"/>
      <point x="39" y="448" type="line"/>
      <point x="39" y="420" type="line"/>
    </contour>
    <contour>
      <point x="216" y="434" type="move" name="_center"/>
    </contour>
  </outline>
</glyph>
<glyph name="strokeshortcomb.d" format="1">
  <advance width="516"/>
  <outline>
    <contour>
      <point x="339" y="421" type="line"/>
      <point x="339" y="449" type="line"/>
      <point x="46" y="449" type="line"/>
      <point x="46" y="421" type="line"/>
    </contour>
    <contour>
      <point x="263" y="435" type="move" name="_stroke"/>
    </contour>
  </outline>
</glyph>
<glyph name="strokeshortcomb.h" format="1">
  <advance width="516"/>
  <outline>
    <contour>
      <point x="470" y="421" type="line"/>
      <point x="470" y="449" type="line"/>
      <point x="177" y="449" type="line"/>
      <point x="177" y="421" type="line"/>
    </contour>
    <contour>
      <point x="253" y="435" type="move" name="_stroke"/>
    </contour>
  </outline>
</glyph>
<glyph name="three.tf" format="1">
  <advance width="515"/>
  <outline>
    <contour>
      <point x="464" y="163" type="curve" smooth="yes"/>
      <point x="464" y="250"/>
      <point x="399" y="305"/>
      <point x="280" y="315" type="curve"/>
      <point x="280" y="303" type="line"/>
      <point x="376" y="321"/>
      <point x="441" y="372"/>
      <point x="441" y="454" type="curve" smooth="yes"/>
      <point x="441" y="546"/>
      <point x="364" y="602"/>
      <point x="233" y="602" type="curve" smooth="yes"/>
      <point x="174" y="602"/>
      <point x="120" y="595"/>
      <point x="68" y="580" type="curve"/>
      <point x="68" y="548" type="line"/>
      <point x="124" y="564"/>
      <point x="178" y="570"/>
      <point x="231" y="570" type="curve" smooth="yes"/>
      <point x="344" y="570"/>
      <point x="406" y="527"/>
      <point x="406" y="452" type="curve" smooth="yes"/>
      <point x="406" y="363"/>
      <point x="328" y="322"/>
      <point x="187" y="322" type="curve" smooth="yes"/>
      <point x="151" y="322" type="line"/>
      <point x="151" y="290" type="line"/>
      <point x="243" y="290" type="line" smooth="yes"/>
      <point x="368" y="290"/>
      <point x="429" y="245"/>
      <point x="429" y="164" type="curve" smooth="yes"/>
      <point x="429" y="75"/>
      <point x="363" y="24"/>
      <point x="217" y="24" type="curve" smooth="yes"/>
      <point x="163" y="24"/>
      <point x="103" y="33"/>
      <point x="44" y="51" type="curve"/>
      <point x="44" y="18" type="line"/>
      <point x="97" y="2"/>
      <point x="160" y="-7"/>
      <point x="215" y="-7" type="curve" smooth="yes"/>
      <point x="386" y="-7"/>
      <point x="464" y="57"/>
    </contour>
  </outline>
</glyph>
<glyph name="two.tf" format="1">
  <advance width="515"/>
  <outline>
    <contour>
      <point x="469" y="0" type="line"/>
      <point x="469" y="32" type="line"/>
      <point x="99" y="32" type="line"/>
      <point x="103" y="20" type="line"/>
      <point x="300" y="225" type="line" smooth="yes"/>
      <point x="391" y="320"/>
      <point x="424" y="374"/>
      <point x="424" y="444" type="curve" smooth="yes"/>
      <point x="424" y="552"/>
      <point x="350" y="602"/>
      <point x="220" y="602" type="curve" smooth="yes"/>
      <point x="155" y="602"/>
      <point x="99" y="593"/>
      <point x="54" y="578" type="curve"/>
      <point x="54" y="545" type="line"/>
      <point x="104" y="562"/>
      <point x="159" y="570"/>
      <point x="219" y="570" type="curve" smooth="yes"/>
      <point x="331" y="570"/>
      <point x="389" y="530"/>
      <point x="389" y="442" type="curve" smooth="yes"/>
      <point x="389" y="385"/>
      <point x="359" y="332"/>
      <point x="277" y="246" type="curve" smooth="yes"/>
      <point x="62" y="20" type="line"/>
      <point x="62" y="0" type="line"/>
    </contour>
  </outline>
</glyph>
<glyph name="zero.tf" format="1">
  <advance width="515"/>
  <outline>
    <contour>
      <point x="466" y="297" type="curve" smooth="yes"/>
      <point x="466" y="521"/>
      <point x="385" y="602"/>
      <point x="258" y="602" type="curve" smooth="yes"/>
      <point x="130" y="602"/>
      <point x="50" y="521"/>
      <point x="50" y="297" type="curve" smooth="yes"/>
      <point x="50" y="74"/>
      <point x="133" y="-7"/>
      <point x="258" y="-7" type="curve" smooth="yes"/>
      <point x="383" y="-7"/>
      <point x="466" y="74"/>
    </contour>
    <contour>
      <point x="85" y="299" type="curve" smooth="yes"/>
      <point x="85" y="507"/>
      <point x="154" y="570"/>
      <point x="258" y="570" type="curve" smooth="yes"/>
      <point x="361" y="570"/>
      <point x="430" y="507"/>
      <point x="430" y="296" type="curve" smooth="yes"/>
      <point x="430" y="87"/>
      <point x="361" y="25"/>
      <point x="258" y="25" type="curve" smooth="yes"/>
      <point x="154" y="25"/>
      <point x="85" y="87"/>
    </contour>
  </outline>
</glyph>
